<svg xmlns="http://www.w3.org/2000/svg" viewBox="0 0 332.61 254.49"><defs><style>.cls-1{fill:#03a887;}.cls-2{fill:#025c4a;}.cls-3{fill:#48e1c3;}.cls-4{fill:#4d615d;}</style></defs><title>arrowRecurso 3cricadev-logo</title><g id="Capa_2" data-name="Capa 2"><g id="Capa_1-2" data-name="Capa 1"><rect class="cls-1" width="332.61" height="254.35"/><rect class="cls-2" x="0.47" y="189.82" width="332.08" height="64.67"/><path class="cls-3" d="M47.92,244.78q-5.72,0-9.05-3.21t-3.32-8.82V213.84q0-5.61,3.32-8.82t9.05-3.21A12.28,12.28,0,0,1,56.86,205a11.71,11.71,0,0,1,3.33,8.8H55a7.54,7.54,0,0,0-1.86-5.47,7,7,0,0,0-5.25-1.92,6.62,6.62,0,0,0-7.21,7.33v19a7.37,7.37,0,0,0,1.92,5.47,7.13,7.13,0,0,0,5.29,1.92,7,7,0,0,0,5.25-1.92A7.55,7.55,0,0,0,55,232.75h5.16a11.7,11.7,0,0,1-3.33,8.79A12.24,12.24,0,0,1,47.92,244.78Z"/><path class="cls-3" d="M71.13,244.2V212.69h5.15v6h.06a7.08,7.08,0,0,1,2.58-4.87,9.05,9.05,0,0,1,5.79-1.72,10.25,10.25,0,0,1,7.85,3.12,11.92,11.92,0,0,1,2.92,8.45v2.18H90.32v-1.72a7.9,7.9,0,0,0-1.83-5.58,6.91,6.91,0,0,0-5.33-2q-6.87,0-6.88,7.56v20Z"/><path class="cls-3" d="M104.13,244.2v-4.69H115.3V217.39h-10v-4.7h15.19v26.82h10.6v4.69ZM117.31,207a4.29,4.29,0,0,1-3-1,3.35,3.35,0,0,1-1.09-2.64,3.51,3.51,0,0,1,1.09-2.72,4.93,4.93,0,0,1,6,0,3.51,3.51,0,0,1,1.09,2.72,3.35,3.35,0,0,1-1.09,2.64A4.27,4.27,0,0,1,117.31,207Z"/><path class="cls-3" d="M151.05,244.78q-5.73,0-9.14-3.21t-3.41-8.82v-8.6q0-5.61,3.41-8.82t9.14-3.21a12.8,12.8,0,0,1,8.77,2.92,10.59,10.59,0,0,1,3.49,8h-5.16a6.37,6.37,0,0,0-2-4.67,8.59,8.59,0,0,0-10.46.28,7.25,7.25,0,0,0-2,5.47v8.66a7.35,7.35,0,0,0,2,5.5,7.45,7.45,0,0,0,5.39,1.94,7.32,7.32,0,0,0,5.07-1.66,6.39,6.39,0,0,0,2-4.64h5.16a10.59,10.59,0,0,1-3.49,8A12.85,12.85,0,0,1,151.05,244.78Z"/><path class="cls-3" d="M182.45,244.78c-3.33,0-5.94-.85-7.85-2.55a9.78,9.78,0,0,1,0-13.84,11.29,11.29,0,0,1,7.73-2.52h9.74v-3.15a5.75,5.75,0,0,0-1.75-4.47,6.86,6.86,0,0,0-4.84-1.6,8.5,8.5,0,0,0-4.64,1.2,5,5,0,0,0-2.35,3.15h-5.15a8.66,8.66,0,0,1,1.92-4.64,10.75,10.75,0,0,1,4.29-3.12,15.14,15.14,0,0,1,5.93-1.12q5.45,0,8.6,2.81a9.69,9.69,0,0,1,3.15,7.62V244.2h-5v-6h-.06a6.47,6.47,0,0,1-2.95,4.81A11.67,11.67,0,0,1,182.45,244.78Zm1.26-4.07a9.48,9.48,0,0,0,6-1.83,5.71,5.71,0,0,0,2.35-4.7v-4.47h-9.62a5.64,5.64,0,0,0-4.07,1.43,5.76,5.76,0,0,0,.31,8.05A7.6,7.6,0,0,0,183.71,240.71Z"/><path class="cls-3" d="M207.65,244.2V202.38h10.83a15,15,0,0,1,7,1.55,11.2,11.2,0,0,1,4.59,4.35,13.08,13.08,0,0,1,1.63,6.65V231.6a13.21,13.21,0,0,1-1.63,6.67,11.1,11.1,0,0,1-4.59,4.39,15,15,0,0,1-7,1.54Zm5.16-4.58h5.67a8,8,0,0,0,5.93-2.12,7.88,7.88,0,0,0,2.15-5.9V214.93a7.84,7.84,0,0,0-2.15-5.85,8.09,8.09,0,0,0-5.93-2.12h-5.67Z"/><path class="cls-3" d="M254,244.78a13.63,13.63,0,0,1-6.51-1.49,10.54,10.54,0,0,1-4.29-4.21,12.83,12.83,0,0,1-1.52-6.33v-8.6a12.79,12.79,0,0,1,1.52-6.36,10.53,10.53,0,0,1,4.29-4.18,14.94,14.94,0,0,1,13,0,10.62,10.62,0,0,1,4.3,4.18,12.79,12.79,0,0,1,1.52,6.36v5.56h-19.6v3a7.94,7.94,0,0,0,1.89,5.7,7.14,7.14,0,0,0,5.39,2,9.52,9.52,0,0,0,4.81-1.06,4.42,4.42,0,0,0,2.23-3.18h5.16a8.69,8.69,0,0,1-3.87,6.28A14.33,14.33,0,0,1,254,244.78Zm-7.28-19h14.55v-1.66a8.13,8.13,0,0,0-1.86-5.73,8.29,8.29,0,0,0-10.8,0,8,8,0,0,0-1.89,5.73Z"/><path class="cls-3" d="M284.94,244.2,274,212.69h5.33l7.33,21.2c.42,1.26.78,2.48,1.09,3.64s.53,2.07.69,2.72c.19-.65.42-1.55.69-2.72a37.64,37.64,0,0,1,1-3.64l7.1-21.2h5.39L291.7,244.2Z"/><path class="cls-4" d="M51.41,244.78q-5.71,0-9-3.21T39,232.75V213.84q0-5.61,3.32-8.82t9-3.21A12.28,12.28,0,0,1,60.35,205a11.71,11.71,0,0,1,3.33,8.8H58.52a7.54,7.54,0,0,0-1.86-5.47,7,7,0,0,0-5.25-1.92,6.62,6.62,0,0,0-7.21,7.33v19a7.37,7.37,0,0,0,1.92,5.47,7.14,7.14,0,0,0,5.29,1.92,7,7,0,0,0,5.25-1.92,7.55,7.55,0,0,0,1.86-5.47h5.16a11.7,11.7,0,0,1-3.33,8.79A12.24,12.24,0,0,1,51.41,244.78Z"/><path class="cls-4" d="M74.62,244.2V212.69h5.15v6h.06a7.08,7.08,0,0,1,2.58-4.87,9.05,9.05,0,0,1,5.79-1.72,10.25,10.25,0,0,1,7.85,3.12A11.92,11.92,0,0,1,99,223.69v2.18H93.81v-1.72A7.9,7.9,0,0,0,92,218.57a6.91,6.91,0,0,0-5.33-2q-6.87,0-6.88,7.56v20Z"/><path class="cls-4" d="M107.62,244.2v-4.69h11.17V217.39h-10v-4.7H124v26.82h10.6v4.69ZM120.8,207a4.29,4.29,0,0,1-3-1,3.35,3.35,0,0,1-1.09-2.64,3.51,3.51,0,0,1,1.09-2.72,4.93,4.93,0,0,1,6,0,3.51,3.51,0,0,1,1.09,2.72,3.35,3.35,0,0,1-1.09,2.64A4.27,4.27,0,0,1,120.8,207Z"/><path class="cls-4" d="M154.54,244.78q-5.73,0-9.14-3.21T142,232.75v-8.6q0-5.61,3.41-8.82t9.14-3.21a12.8,12.8,0,0,1,8.77,2.92,10.59,10.59,0,0,1,3.49,8h-5.15a6.41,6.41,0,0,0-2-4.67,8.59,8.59,0,0,0-10.46.28,7.25,7.25,0,0,0-2,5.47v8.66a7.35,7.35,0,0,0,2,5.5,7.45,7.45,0,0,0,5.39,1.94,7.32,7.32,0,0,0,5.07-1.66,6.43,6.43,0,0,0,2-4.64h5.15a10.59,10.59,0,0,1-3.49,8A12.85,12.85,0,0,1,154.54,244.78Z"/><path class="cls-4" d="M185.94,244.78c-3.33,0-5.94-.85-7.85-2.55a9.78,9.78,0,0,1,0-13.84,11.29,11.29,0,0,1,7.73-2.52h9.74v-3.15a5.75,5.75,0,0,0-1.75-4.47,6.86,6.86,0,0,0-4.84-1.6,8.5,8.5,0,0,0-4.64,1.2A5,5,0,0,0,182,221h-5.15a8.66,8.66,0,0,1,1.92-4.64,10.75,10.75,0,0,1,4.29-3.12,15.14,15.14,0,0,1,5.93-1.12q5.44,0,8.6,2.81a9.69,9.69,0,0,1,3.15,7.62V244.2h-5v-6h-.06a6.47,6.47,0,0,1-3,4.81A11.67,11.67,0,0,1,185.94,244.78Zm1.26-4.07a9.48,9.48,0,0,0,6-1.83,5.71,5.71,0,0,0,2.35-4.7v-4.47h-9.62a5.64,5.64,0,0,0-4.07,1.43,5.18,5.18,0,0,0-1.49,3.9,5.12,5.12,0,0,0,1.81,4.15A7.55,7.55,0,0,0,187.2,240.71Z"/><path class="cls-4" d="M211.15,244.2V202.38H222a14.93,14.93,0,0,1,7,1.55,11.2,11.2,0,0,1,4.59,4.35,13.08,13.08,0,0,1,1.63,6.65V231.6a13.21,13.21,0,0,1-1.63,6.67,11.1,11.1,0,0,1-4.59,4.39,14.93,14.93,0,0,1-7,1.54Zm5.15-4.58H222a8,8,0,0,0,5.93-2.12,7.88,7.88,0,0,0,2.15-5.9V214.93a7.84,7.84,0,0,0-2.15-5.85A8.09,8.09,0,0,0,222,207H216.3Z"/><path class="cls-4" d="M257.44,244.78a13.56,13.56,0,0,1-6.5-1.49,10.51,10.51,0,0,1-4.3-4.21,12.83,12.83,0,0,1-1.52-6.33v-8.6a12.79,12.79,0,0,1,1.52-6.36,10.5,10.5,0,0,1,4.3-4.18,14.92,14.92,0,0,1,13,0,10.56,10.56,0,0,1,4.3,4.18,12.79,12.79,0,0,1,1.52,6.36v5.56h-19.6v3a7.94,7.94,0,0,0,1.89,5.7,7.14,7.14,0,0,0,5.39,2,9.52,9.52,0,0,0,4.81-1.06,4.42,4.42,0,0,0,2.23-3.18h5.16a8.69,8.69,0,0,1-3.87,6.28A14.33,14.33,0,0,1,257.44,244.78Zm-7.28-19h14.55v-1.66a8.13,8.13,0,0,0-1.86-5.73,8.29,8.29,0,0,0-10.8,0,8,8,0,0,0-1.89,5.73Z"/><path class="cls-4" d="M288.43,244.2l-10.94-31.51h5.33l7.33,21.2c.42,1.26.78,2.48,1.09,3.64s.53,2.07.69,2.72c.19-.65.42-1.55.69-2.72a37.64,37.64,0,0,1,1-3.64l7.1-21.2h5.39L295.19,244.2Z"/><path class="cls-4" d="M124.75,138.09q-6.33,4.66-16.11,4.66-10.74,0-16.47-5.61t-5.73-15.87v-31q0-10.5,5.73-16t16.47-5.49q9.78,0,16.11,4.77a17.59,17.59,0,0,1,7,13.13h34.85q-1-22.68-16.47-35.8T108.64,37.73q-17.43,0-30.55,6.56A48.81,48.81,0,0,0,57.8,62.55q-7.15,11.7-7.16,27.69v31q0,15.75,7.16,27.56a48.41,48.41,0,0,0,20.29,18.38q13.13,6.57,30.55,6.56,26,0,41.53-13.12t16.47-35.8H131.79Q131.07,133.43,124.75,138.09ZM80.47,123.36H54V85.66H80.47Z"/><path class="cls-4" d="M263.59,58.43A38.82,38.82,0,0,0,247.7,43.72q-10.19-5.23-23.91-5.23H181V170.25h42.78q13.71,0,23.91-5.33A39,39,0,0,0,263.59,150a42.59,42.59,0,0,0,5.68-22.2V80.72Q269.27,67.91,263.59,58.43Zm-67.75,3.69A9,9,0,1,1,205,53.17,9,9,0,0,1,195.84,62.12Zm27.95,83.76h-15.7v-83h15.7q8.11,0,13.27,5a17.12,17.12,0,0,1,5.14,12.9v47.11a17.42,17.42,0,0,1-5.14,13Q231.92,145.89,223.79,145.88Zm24.32,12.55a9,9,0,1,1,9.13-9A9,9,0,0,1,248.11,158.43Z"/></g></g></svg>