<svg xmlns="http://www.w3.org/2000/svg" viewBox="0 0 117.66 90.03"><defs><style>.cls-1{fill:#03a887;}.cls-2{fill:#025c4a;}.cls-3{fill:#48e1c3;}.cls-4{fill:#4d615d;}</style></defs><title>arrowRecurso 4cricadev-logo-small</title><g id="Capa_2" data-name="Capa 2"><g id="Capa_1-2" data-name="Capa 1"><rect class="cls-1" width="117.66" height="89.98"/><rect class="cls-2" x="0.17" y="67.15" width="117.48" height="22.88"/><path class="cls-3" d="M17,86.59a4.43,4.43,0,0,1-3.2-1.13,4.16,4.16,0,0,1-1.17-3.13V75.65a4.12,4.12,0,0,1,1.17-3.12A4.39,4.39,0,0,1,17,71.39a4.33,4.33,0,0,1,3.17,1.15,4.15,4.15,0,0,1,1.17,3.11H19.47a2.67,2.67,0,0,0-.66-1.94A2.49,2.49,0,0,0,17,73a2.54,2.54,0,0,0-1.87.67,2.61,2.61,0,0,0-.68,1.93v6.7a2.63,2.63,0,0,0,.68,1.94A2.54,2.54,0,0,0,17,85a2.49,2.49,0,0,0,1.86-.68,2.67,2.67,0,0,0,.66-1.94h1.82a4.17,4.17,0,0,1-1.17,3.12A4.37,4.37,0,0,1,17,86.59Z"/><path class="cls-3" d="M25.16,86.39V75.24H27v2.13h0a2.44,2.44,0,0,1,.91-1.72A3.17,3.17,0,0,1,30,75a3.63,3.63,0,0,1,2.77,1.1,4.22,4.22,0,0,1,1,3v.77H32v-.61a2.74,2.74,0,0,0-.65-2,2.42,2.42,0,0,0-1.88-.7Q27,76.62,27,79.29v7.1Z"/><path class="cls-3" d="M36.84,86.39V84.73h3.95V76.9H37.24V75.24h5.37v9.49h3.75v1.66ZM41.5,73.23a1.54,1.54,0,0,1-1.06-.34,1.21,1.21,0,0,1-.38-.93,1.28,1.28,0,0,1,.38-1,1.77,1.77,0,0,1,2.11,0,1.25,1.25,0,0,1,.39,1,1.18,1.18,0,0,1-.39.93A1.53,1.53,0,0,1,41.5,73.23Z"/><path class="cls-3" d="M53.43,86.59a4.56,4.56,0,0,1-3.23-1.13A4.11,4.11,0,0,1,49,82.33v-3a4.1,4.1,0,0,1,1.2-3.12,5.2,5.2,0,0,1,6.34-.1,3.75,3.75,0,0,1,1.23,2.82H56a2.24,2.24,0,0,0-.72-1.65,2.62,2.62,0,0,0-1.8-.58,2.65,2.65,0,0,0-1.9.68,2.56,2.56,0,0,0-.71,1.93v3.06a2.72,2.72,0,0,0,4.41,2A2.27,2.27,0,0,0,56,82.74h1.82a3.75,3.75,0,0,1-1.23,2.82A4.54,4.54,0,0,1,53.43,86.59Z"/><path class="cls-3" d="M64.54,86.59a4.06,4.06,0,0,1-2.78-.9,3.48,3.48,0,0,1,0-4.9,4,4,0,0,1,2.74-.89H68V78.79a2,2,0,0,0-.62-1.58,2.42,2.42,0,0,0-1.71-.57,3,3,0,0,0-1.65.43,1.79,1.79,0,0,0-.83,1.11H61.32A3,3,0,0,1,62,76.54a3.88,3.88,0,0,1,1.52-1.11,5.46,5.46,0,0,1,2.1-.39,4.43,4.43,0,0,1,3,1,3.43,3.43,0,0,1,1.11,2.7v7.66H68V84.26h0a2.27,2.27,0,0,1-1,1.7A4.13,4.13,0,0,1,64.54,86.59ZM65,85.15a3.34,3.34,0,0,0,2.13-.65A2,2,0,0,0,68,82.84V81.26H64.54a2,2,0,0,0-1.44.51,2,2,0,0,0,.11,2.84A2.68,2.68,0,0,0,65,85.15Z"/><path class="cls-3" d="M73.46,86.39V71.59h3.83a5.31,5.31,0,0,1,2.48.55,3.88,3.88,0,0,1,1.62,1.54A4.55,4.55,0,0,1,82,76v5.9a4.61,4.61,0,0,1-.58,2.36,3.85,3.85,0,0,1-1.62,1.55,5.19,5.19,0,0,1-2.48.55Zm1.82-1.62h2a2.87,2.87,0,0,0,2.1-.75,2.84,2.84,0,0,0,.76-2.09V76A2.8,2.8,0,0,0,79.39,74a2.87,2.87,0,0,0-2.1-.75h-2Z"/><path class="cls-3" d="M89.83,86.59a4.73,4.73,0,0,1-2.3-.53A3.7,3.7,0,0,1,86,84.57a4.58,4.58,0,0,1-.53-2.24v-3A4.62,4.62,0,0,1,86,77a3.77,3.77,0,0,1,1.52-1.47,4.73,4.73,0,0,1,2.3-.53,4.68,4.68,0,0,1,2.3.53A3.65,3.65,0,0,1,93.65,77a4.51,4.51,0,0,1,.54,2.25v2H87.26v1.07a2.78,2.78,0,0,0,.67,2,2.5,2.5,0,0,0,1.9.7,3.41,3.41,0,0,0,1.71-.37,1.61,1.61,0,0,0,.79-1.13h1.82a3.09,3.09,0,0,1-1.37,2.22A5,5,0,0,1,89.83,86.59Zm-2.57-6.71h5.15v-.59a2.86,2.86,0,0,0-.66-2,2.92,2.92,0,0,0-3.82,0,2.82,2.82,0,0,0-.67,2Z"/><path class="cls-3" d="M100.8,86.39,96.93,75.24h1.88l2.6,7.5c.15.45.27.87.38,1.29s.19.73.25,1q.09-.34.24-1a12,12,0,0,1,.36-1.29l2.52-7.5h1.9l-3.87,11.15Z"/><path class="cls-4" d="M18.19,86.59A4.43,4.43,0,0,1,15,85.46a4.13,4.13,0,0,1-1.18-3.13V75.65A4.09,4.09,0,0,1,15,72.53a4.39,4.39,0,0,1,3.2-1.14,4.31,4.31,0,0,1,3.16,1.15,4.15,4.15,0,0,1,1.18,3.11H20.7A2.67,2.67,0,0,0,20,73.71,2.46,2.46,0,0,0,18.19,73a2.56,2.56,0,0,0-1.88.67,2.61,2.61,0,0,0-.68,1.93v6.7a2.63,2.63,0,0,0,.68,1.94,2.56,2.56,0,0,0,1.88.68A2.46,2.46,0,0,0,20,84.27a2.67,2.67,0,0,0,.66-1.94h1.83a4.18,4.18,0,0,1-1.18,3.12A4.34,4.34,0,0,1,18.19,86.59Z"/><path class="cls-4" d="M26.4,86.39V75.24h1.82v2.13h0a2.51,2.51,0,0,1,.91-1.72A3.21,3.21,0,0,1,31.2,75,3.65,3.65,0,0,1,34,76.14a4.21,4.21,0,0,1,1,3v.77H33.19v-.61a2.79,2.79,0,0,0-.65-2,2.43,2.43,0,0,0-1.89-.7q-2.43,0-2.43,2.67v7.1Z"/><path class="cls-4" d="M38.07,86.39V84.73h4V76.9H38.48V75.24h5.37v9.49H47.6v1.66Zm4.66-13.16a1.51,1.51,0,0,1-1-.34,1.18,1.18,0,0,1-.39-.93,1.25,1.25,0,0,1,.39-1,1.51,1.51,0,0,1,1-.35,1.54,1.54,0,0,1,1.06.35,1.28,1.28,0,0,1,.38,1,1.21,1.21,0,0,1-.38.93A1.54,1.54,0,0,1,42.73,73.23Z"/><path class="cls-4" d="M54.67,86.59a4.54,4.54,0,0,1-3.23-1.13,4.08,4.08,0,0,1-1.21-3.13v-3a4.07,4.07,0,0,1,1.21-3.12,5.18,5.18,0,0,1,6.33-.1A3.76,3.76,0,0,1,59,78.89H57.18a2.24,2.24,0,0,0-.72-1.65,2.59,2.59,0,0,0-1.79-.58,2.67,2.67,0,0,0-1.91.68,2.56,2.56,0,0,0-.71,1.93v3.06a2.61,2.61,0,0,0,.71,2,2.63,2.63,0,0,0,1.91.69,2.59,2.59,0,0,0,1.79-.59,2.27,2.27,0,0,0,.72-1.64H59a3.76,3.76,0,0,1-1.24,2.82A4.52,4.52,0,0,1,54.67,86.59Z"/><path class="cls-4" d="M65.78,86.59a4,4,0,0,1-2.78-.9,3.48,3.48,0,0,1,0-4.9,4,4,0,0,1,2.74-.89h3.44V78.79a2,2,0,0,0-.62-1.58,2.42,2.42,0,0,0-1.71-.57,2.92,2.92,0,0,0-1.64.43,1.75,1.75,0,0,0-.83,1.11H62.55a3.12,3.12,0,0,1,.68-1.64,4,4,0,0,1,1.52-1.11,5.46,5.46,0,0,1,2.1-.39,4.42,4.42,0,0,1,3,1A3.44,3.44,0,0,1,71,78.73v7.66H69.22V84.26h0a2.29,2.29,0,0,1-1,1.7A4.15,4.15,0,0,1,65.78,86.59Zm.44-1.44a3.3,3.3,0,0,0,2.13-.65,2,2,0,0,0,.83-1.66V81.26h-3.4a2,2,0,0,0-1.44.51,1.82,1.82,0,0,0-.53,1.38,1.78,1.78,0,0,0,.64,1.46A2.64,2.64,0,0,0,66.22,85.15Z"/><path class="cls-4" d="M74.69,86.39V71.59h3.83a5.38,5.38,0,0,1,2.49.55,4,4,0,0,1,1.62,1.54A4.65,4.65,0,0,1,83.21,76v5.9a4.72,4.72,0,0,1-.58,2.36A4,4,0,0,1,81,85.84a5.26,5.26,0,0,1-2.49.55Zm1.83-1.62h2a2.85,2.85,0,0,0,2.1-.75,2.8,2.8,0,0,0,.76-2.09V76A2.76,2.76,0,0,0,80.62,74a2.85,2.85,0,0,0-2.1-.75h-2Z"/><path class="cls-4" d="M91.07,86.59a4.68,4.68,0,0,1-2.3-.53,3.64,3.64,0,0,1-1.52-1.49,4.48,4.48,0,0,1-.54-2.24v-3A4.51,4.51,0,0,1,87.25,77a3.71,3.71,0,0,1,1.52-1.47,5.26,5.26,0,0,1,4.6,0A3.77,3.77,0,0,1,94.89,77a4.51,4.51,0,0,1,.54,2.25v2H88.5v1.07a2.82,2.82,0,0,0,.66,2,2.51,2.51,0,0,0,1.91.7,3.37,3.37,0,0,0,1.7-.37,1.58,1.58,0,0,0,.79-1.13h1.83A3.12,3.12,0,0,1,94,85.77,5.05,5.05,0,0,1,91.07,86.59ZM88.5,79.88h5.14v-.59a2.86,2.86,0,0,0-.66-2,2.43,2.43,0,0,0-1.91-.71,2.48,2.48,0,0,0-1.91.71,2.86,2.86,0,0,0-.66,2Z"/><path class="cls-4" d="M102,86.39,98.16,75.24h1.89l2.59,7.5c.15.45.28.87.39,1.29s.19.73.24,1q.11-.34.24-1c.1-.42.22-.84.37-1.29l2.51-7.5h1.91l-3.87,11.15Z"/><path class="cls-4" d="M44.13,48.85a9.35,9.35,0,0,1-5.7,1.65,8,8,0,0,1-5.82-2,7.49,7.49,0,0,1-2-5.61v-11a7.47,7.47,0,0,1,2-5.65,8.06,8.06,0,0,1,5.82-1.95A9.23,9.23,0,0,1,44.13,26a6.24,6.24,0,0,1,2.49,4.65H59q-.35-8-5.83-12.67T38.43,13.35a23.87,23.87,0,0,0-10.81,2.32,17.25,17.25,0,0,0-7.17,6.46,18.37,18.37,0,0,0-2.53,9.79v11a18.45,18.45,0,0,0,2.53,9.75,17.14,17.14,0,0,0,7.17,6.5,23.87,23.87,0,0,0,10.81,2.32q9.21,0,14.69-4.64T59,44.16H46.62A6.16,6.16,0,0,1,44.13,48.85ZM28.47,43.64H19.12V30.3h9.35Z"/><path class="cls-4" d="M93.24,20.67a13.69,13.69,0,0,0-5.61-5.2,18.25,18.25,0,0,0-8.46-1.85H64V60.23H79.17a18,18,0,0,0,8.46-1.89,13.78,13.78,0,0,0,5.61-5.27,15,15,0,0,0,2-7.85V28.56A15,15,0,0,0,93.24,20.67ZM69.28,22a3.17,3.17,0,1,1,3.23-3.17A3.2,3.2,0,0,1,69.28,22Zm9.89,29.63H73.61V22.24h5.56A6.47,6.47,0,0,1,83.86,24a6.07,6.07,0,0,1,1.82,4.57V45.22a6.18,6.18,0,0,1-1.82,4.6A6.42,6.42,0,0,1,79.17,51.61Zm8.6,4.44A3.17,3.17,0,1,1,91,52.88,3.2,3.2,0,0,1,87.77,56.05Z"/></g></g></svg>